<?xml version="1.0" encoding="UTF-8" standalone="no"?>
<svg width="1440px" height="697px" viewBox="0 0 1440 697" version="1.1" xmlns="http://www.w3.org/2000/svg" xmlns:xlink="http://www.w3.org/1999/xlink">
    <!-- Generator: Sketch 39.1 (31720) - http://www.bohemiancoding.com/sketch -->
    <title>background-hero</title>
    <desc>Created with Sketch.</desc>
    <defs>
        <linearGradient x1="50%" y1="9.43478954%" x2="50%" y2="100%" id="linearGradient-1">
            <stop stop-color="#00A4FF" offset="0%"></stop>
            <stop stop-color="#4B69C8" stop-opacity="0.910326087" offset="100%"></stop>
        </linearGradient>
    </defs>
    <g id="Page-1" stroke="none" stroke-width="1" fill="none" fill-rule="evenodd">
        <g id="background-hero">
            <rect id="Rectangle" fill="url(#linearGradient-1)" x="0" y="0" width="1440" height="700"></rect>
            <circle id="Oval-4" stroke="#F1F2F3" stroke-width="4" opacity="0.200000003" cx="1089" cy="475" r="142"></circle>
            <circle id="Oval-4" stroke="#F1F2F3" stroke-width="4" opacity="0.100000001" cx="1089" cy="475" r="170"></circle>
            <circle id="Oval-4" stroke="#F1F2F3" stroke-width="4" opacity="0.5" cx="1089" cy="475" r="115"></circle>
            <circle id="Oval-4" stroke="#F1F2F3" stroke-width="4" opacity="0.699999988" cx="1089" cy="475" r="90"></circle>
            <g id="message" transform="translate(432.602892, 527.128824) rotate(31.000000) translate(-432.602892, -527.128824) translate(376.602892, 487.128824)">
                <g id="Capa_1">
                    <g id="mail-(1)">
                        <g id="Capa_1">
                            <g id="Group">
                                <g id="Shape">
                                    <polygon fill="#DCD6CD" points="0.581970906 -0.350559798 0.581970906 78.2459314 56.5819709 78.2459314 112.581971 78.2459314 112.581971 -0.350559798"></polygon>
                                    <path d="M61.9964041,44.4840302 C58.7224041,47.331499 53.4124041,47.331499 50.1364041,44.4840302 L45.9624041,40.8945056 C32.9044041,52.2454277 0.0664040778,77.3857336 0.0664040778,77.3857336 L43.2804041,77.3857336 L68.8544041,77.3857336 L112.066404,77.3857336 C112.066404,77.3857336 79.2284041,52.2434801 66.1704041,40.8945056 L61.9964041,44.4840302 L61.9964041,44.4840302 Z" fill="#E8E3D9"></path>
                                    <path d="M-0.433108908,0.260890312 L49.6368911,44.38799 C52.9108911,47.306243 58.2208911,47.306243 61.4968911,44.38799 L111.566891,0.260890312 L-0.433108908,0.260890312 L-0.433108908,0.260890312 Z" fill="#EFEBDE"></path>
                                </g>
                            </g>
                        </g>
                    </g>
                </g>
            </g>
            <g id="Group-2" transform="translate(-5.000000, 421.000000)" stroke="#F1F2F3" stroke-width="5" stroke-dasharray="20">
                <path d="M0,149.5 L0,149.5 C62.9604615,149.5 114,115.249783 114,73" id="Oval-2"></path>
                <path d="M111.5,73 L111.5,73 C153.749783,73 188,40.5406444 188,0.5" id="Oval-3"></path>
            </g>
            <g id="Group-2" opacity="0.200000003" transform="translate(1127.743993, 79.192695) rotate(45.000000) translate(-1127.743993, -79.192695) translate(853.743993, -117.307305)" stroke="#F1F2F3" stroke-width="7.5" stroke-dasharray="30">
                <path d="M0.0351692581,392.338815 L1.30180684,390.248971 C153.565714,390.248971 277,275.276214 277,133.45013" id="Oval-2"></path>
                <path d="M270.636039,166.795419 L270.636039,166.795419 C423.599491,166.795419 547.60087,92.5170294 547.60087,0.889992963" id="Oval-3"></path>
            </g>
            <g id="Group-2" transform="translate(595.000000, 642.000000) scale(-1, 1) translate(-595.000000, -642.000000) translate(501.000000, 567.000000)" stroke="#F1F2F3" stroke-width="5" stroke-dasharray="20">
                <path d="M0,149.5 L0,149.5 C62.9604615,149.5 114,115.249783 114,73" id="Oval-2"></path>
                <path d="M111.5,73 L111.5,73 C153.749783,73 188,40.5406444 188,0.5" id="Oval-3"></path>
            </g>
            <g id="messenger" opacity="0.800000012" transform="translate(683.000000, 466.000000)">
                <g id="Capa_1">
                    <g id="Group">
                        <path d="M74,48.5555556 C74,52.0336667 71.0935862,54.9444444 67.6206897,54.9444444 L30.6206897,54.9444444 L17.862069,69 L17.862069,54.9444444 L6.37931034,54.9444444 C2.90641379,54.9444444 0,52.0336667 0,48.5555556 L0,6.38888889 C0,2.91077778 2.90641379,0 6.37931034,0 L67.6206897,0 C71.0935862,0 74,2.91077778 74,6.38888889 L74,48.5555556 Z" id="Shape" fill="#F1F2F3"></path>
                        <polygon id="Shape" fill="#00A4FF" points="11 40.3913043 23.75 14.3043478 46.7 31.2608696 62 13 46.7 43 23.75 26.0434783"></polygon>
                    </g>
                </g>
            </g>
            <g id="paper-plane" transform="translate(167.000000, 323.000000)">
                <g id="Capa_1">
                    <polygon id="Shape" fill="#E7ECED" points="43.9515018 46 0 31.584 116 0 71.9206393 86"></polygon>
                    <polygon id="Shape" fill="#AFB6BB" points="43.9562485 46 40 78 57 64.84"></polygon>
                    <path d="M42.796,44.6488665 C42.39,44.9088161 42.138,45.3017632 42,45.7289673 L43.872,46.3476071 L45.02,48 L114.25,3.43576826 L116,3.55271368e-15 L109.31,1.83375315 L42.796,44.6488665 L42.796,44.6488665 Z" id="Shape" fill="#AFB6BB"></path>
                </g>
            </g>
            <g id="smartphone" transform="translate(981.000000, 381.000000)">
                <g id="Capa_1">
                    <rect id="Rectangle-path" fill="#C8D2D6" x="88" y="225" width="115" height="53"></rect>
                    <path d="M165,278 L88,278 L88,225 L133.362625,225 C150.836813,225 165,239.179909 165,256.674727 L165,278 L165,278 Z" id="Shape" fill="#E7ECED"></path>
                    <circle id="Oval" fill="#00A4FF" cx="133" cy="252" r="12"></circle>
                    <path d="M125.992241,51 C131.879439,48.4121158 136,42.5487914 136,35.7114294 C136,26.4819457 128.518054,19 119.288571,19 C112.446434,19 106.58311,23.120561 104,29.0077589 L125.992241,51 L125.992241,51 Z" id="Shape" fill="#FBCE9D"></path>
                    <path d="M148.992241,75 C154.879439,72.4121158 159,66.5487914 159,59.7114294 C159,50.4819457 151.518054,43 142.288571,43 C135.446434,43 129.58311,47.120561 127,53.0077589 L148.992241,75 L148.992241,75 Z" id="Shape" fill="#FBCE9D"></path>
                    <path d="M172.992241,99 C178.879439,96.4121158 183,90.5487914 183,83.7114294 C183,74.4819457 175.518054,67 166.288571,67 C159.446434,67 153.58311,71.120561 151,77.0077589 L172.992241,99 L172.992241,99 Z" id="Shape" fill="#FBCE9D"></path>
                    <path d="M196.992241,123 C202.879439,120.412116 207,114.548791 207,107.711429 C207,98.4819457 199.518054,91 190.288571,91 C183.446434,91 177.58311,95.120561 175,101.007759 L196.992241,123 L196.992241,123 Z" id="Shape" fill="#FBCE9D"></path>
                    <path d="M100.117647,159 L51.8823529,159 C42.5970588,159 35,151.35 35,142 L35,142 C35,132.65 42.5970588,125 51.8823529,125 L100.117647,125 C109.402941,125 117,132.65 117,142 L117,142 C117,151.35 109.402941,159 100.117647,159 L100.117647,159 Z" id="Shape" fill="#FBCE9D"></path>
                    <path d="M199.05304,151 L145.707092,204.305694 C141.408714,208.600829 134.43824,208.600829 130.144659,204.305694 L83.6972248,157.888515 L52.0878316,157.888515 C49.3149936,159.245125 41.7496555,154.350781 44.6520205,156.838699 L96.5204009,208.466606 C96.875401,208.821338 97.2879685,209.075403 97.6621577,209.39658 L97.6621577,225 L193.608108,225 L193.608108,203.380514 C202.334392,196.81797 208,186.420483 208,174.666386 C207.995203,165.591954 204.603513,157.327654 199.05304,151 L199.05304,151 Z" id="Shape" fill="#F7B563"></path>
                    <path d="M87.6599479,14 L13,88.6579005 L49.4349376,125.091839 C50.0348279,125.029452 50.6155217,124.909477 51.2250103,124.909477 L99.2162347,124.909477 C108.454545,124.909477 116.013163,132.467888 116.013163,141.705945 C116.013163,150.944003 108.454545,158.502413 99.2162347,158.502413 L82.8464281,158.502413 L113.344851,189 L188,114.342099 L87.6599479,14 L87.6599479,14 Z" id="Shape" fill="#424A60"></path>
                    <g id="Group" fill="#E7ECED">
                        <path d="M89,13.9391196 L78.3032094,3.24232896 C73.9801041,-1.08077632 66.9695327,-1.08077632 62.6512523,3.24232896 L3.24232896,62.6464274 C-1.08077632,66.9695327 -1.08077632,73.9801041 3.24232896,78.3032094 L13.9391196,89 L89,13.9391196 L89,13.9391196 Z" id="Shape"></path>
                        <path d="M204.770472,129.996727 L188.773642,114 L114,188.777971 L129.992023,204.769892 C134.298862,209.076703 141.283054,209.076703 145.585086,204.769892 L204.765665,145.589691 C209.07731,141.287687 209.07731,134.303539 204.770472,129.996727 L204.770472,129.996727 Z" id="Shape"></path>
                    </g>
                    <circle id="Oval" fill="#FFFFFF" cx="161.5" cy="160.5" r="9.5"></circle>
                    <path d="M39.7505937,53 C38.5347457,53 37.3188976,52.5345291 36.3927634,51.608337 C34.5357455,49.751203 34.5357455,46.7493907 36.3927634,44.8922567 L45.8915761,35.3928504 C47.7485939,33.5357165 50.7502187,33.5357165 52.6072366,35.3928504 C54.4642545,37.2499844 54.4642545,40.2517968 52.6072366,42.1089307 L43.1084239,51.608337 C42.1822897,52.5345291 40.9664417,53 39.7505937,53 L39.7505937,53 Z" id="Shape" fill="#424A60"></path>
                </g>
            </g>
            <ellipse id="Oval-5" stroke="#F1F2F3" stroke-width="7" stroke-dasharray="20" opacity="0.200000003" cx="1151" cy="-18" rx="37" ry="63"></ellipse>
        </g>
    </g>
</svg>