<?xml version="1.0" encoding="UTF-8" standalone="no"?>
<svg width="1440px" height="697px" viewBox="0 0 1440 697" version="1.1" xmlns="http://www.w3.org/2000/svg" xmlns:xlink="http://www.w3.org/1999/xlink">
    <!-- Generator: Sketch 39.1 (31720) - http://www.bohemiancoding.com/sketch -->
    <title>background-hero</title>
    <desc>Created with Sketch.</desc>
    <defs>
        <linearGradient x1="50%" y1="9.43478954%" x2="50%" y2="100%" id="linearGradient-1">
            <stop stop-color="#00A4FF" offset="0%"></stop>
            <stop stop-color="#4B69C8" stop-opacity="0.910326087" offset="100%"></stop>
        </linearGradient>
    </defs>
    <g id="Page-1" stroke="none" stroke-width="1" fill="none" fill-rule="evenodd">
        <g id="background-hero">
            <rect id="Rectangle" fill="url(#linearGradient-1)" x="0" y="0" width="1440" height="700"></rect>
            <circle id="Oval-4" stroke="#F1F2F3" stroke-width="4" opacity="0.200000003" cx="1149" cy="515" r="142"></circle>
            <circle id="Oval-4" stroke="#F1F2F3" stroke-width="4" opacity="0.100000001" cx="1149" cy="515" r="170"></circle>
            <circle id="Oval-4" stroke="#F1F2F3" stroke-width="4" opacity="0.5" cx="1149" cy="515" r="115"></circle>
            <circle id="Oval-4" stroke="#F1F2F3" stroke-width="4" opacity="0.699999988" cx="1149" cy="515" r="90"></circle>
            <g id="message" transform="translate(392.602892, 557.128824) rotate(31.000000) translate(-392.602892, -557.128824) translate(336.602892, 517.128824)">
                <g id="Capa_1">
                    <g id="mail-(1)">
                        <g id="Capa_1">
                            <g id="Group">
                                <g id="Shape">
                                    <polygon fill="#DCD6CD" points="0.581970906 -0.350559798 0.581970906 78.2459314 56.5819709 78.2459314 112.581971 78.2459314 112.581971 -0.350559798"></polygon>
                                    <path d="M61.9964041,44.4840302 C58.7224041,47.331499 53.4124041,47.331499 50.1364041,44.4840302 L45.9624041,40.8945056 C32.9044041,52.2454277 0.0664040778,77.3857336 0.0664040778,77.3857336 L43.2804041,77.3857336 L68.8544041,77.3857336 L112.066404,77.3857336 C112.066404,77.3857336 79.2284041,52.2434801 66.1704041,40.8945056 L61.9964041,44.4840302 L61.9964041,44.4840302 Z" fill="#E8E3D9"></path>
                                    <path d="M-0.433108908,0.260890312 L49.6368911,44.38799 C52.9108911,47.306243 58.2208911,47.306243 61.4968911,44.38799 L111.566891,0.260890312 L-0.433108908,0.260890312 L-0.433108908,0.260890312 Z" fill="#EFEBDE"></path>
                                </g>
                            </g>
                        </g>
                    </g>
                </g>
            </g>
            <g id="Group-2" transform="translate(-5.000000, 421.000000)" stroke="#F1F2F3" stroke-width="5" stroke-dasharray="20">
                <path d="M0,149.5 L0,149.5 C62.9604615,149.5 114,115.249783 114,73" id="Oval-2"></path>
                <path d="M111.5,73 L111.5,73 C153.749783,73 188,40.5406444 188,0.5" id="Oval-3"></path>
            </g>
            <g id="Group-2" opacity="0.200000003" transform="translate(1197.743993, 79.192695) rotate(45.000000) translate(-1197.743993, -79.192695) translate(923.743993, -117.307305)" stroke="#F1F2F3" stroke-width="7.5" stroke-dasharray="30">
                <path d="M0.0351692581,392.338815 L1.30180684,390.248971 C153.565714,390.248971 277,275.276214 277,133.45013" id="Oval-2"></path>
                <path d="M270.636039,166.795419 L270.636039,166.795419 C423.599491,166.795419 547.60087,92.5170294 547.60087,0.889992963" id="Oval-3"></path>
            </g>
            <g id="Group-2" transform="translate(555.000000, 672.000000) scale(-1, 1) translate(-555.000000, -672.000000) translate(461.000000, 597.000000)" stroke="#F1F2F3" stroke-width="5" stroke-dasharray="20">
                <path d="M0,149.5 L0,149.5 C62.9604615,149.5 114,115.249783 114,73" id="Oval-2"></path>
                <path d="M111.5,73 L111.5,73 C153.749783,73 188,40.5406444 188,0.5" id="Oval-3"></path>
            </g>
            <g id="messenger" opacity="0.800000012" transform="translate(683.000000, 496.000000)">
                <g id="Capa_1">
                    <g id="Group">
                        <path d="M74,48.5555556 C74,52.0336667 71.0935862,54.9444444 67.6206897,54.9444444 L30.6206897,54.9444444 L17.862069,69 L17.862069,54.9444444 L6.37931034,54.9444444 C2.90641379,54.9444444 0,52.0336667 0,48.5555556 L0,6.38888889 C0,2.91077778 2.90641379,0 6.37931034,0 L67.6206897,0 C71.0935862,0 74,2.91077778 74,6.38888889 L74,48.5555556 Z" id="Shape" fill="#F1F2F3"></path>
                        <polygon id="Shape" fill="#00A4FF" points="11 40.3913043 23.75 14.3043478 46.7 31.2608696 62 13 46.7 43 23.75 26.0434783"></polygon>
                    </g>
                </g>
            </g>
            <g id="paper-plane" transform="translate(167.000000, 323.000000)">
                <g id="Capa_1">
                    <polygon id="Shape" fill="#E7ECED" points="43.9515018 46 0 31.584 116 0 71.9206393 86"></polygon>
                    <polygon id="Shape" fill="#AFB6BB" points="43.9562485 46 40 78 57 64.84"></polygon>
                    <path d="M42.796,44.6488665 C42.39,44.9088161 42.138,45.3017632 42,45.7289673 L43.872,46.3476071 L45.02,48 L114.25,3.43576826 L116,3.55271368e-15 L109.31,1.83375315 L42.796,44.6488665 L42.796,44.6488665 Z" id="Shape" fill="#AFB6BB"></path>
                </g>
            </g>
            <g id="smartphone" transform="translate(1039.000000, 421.000000)">
                <g id="Capa_1">
                    <rect id="Rectangle-path" fill="#C8D2D6" x="90" y="225" width="115" height="53"></rect>
                    <path d="M167,278 L90,278 L90,225 L135.362625,225 C152.836813,225 167,239.179909 167,256.674727 L167,278 L167,278 Z" id="Shape" fill="#E7ECED"></path>
                    <circle id="Oval" fill="#00A4FF" cx="135" cy="252" r="12"></circle>
                    <path d="M127.992241,51 C133.879439,48.4121158 138,42.5487914 138,35.7114294 C138,26.4819457 130.518054,19 121.288571,19 C114.446434,19 108.58311,23.120561 106,29.0077589 L127.992241,51 L127.992241,51 Z" id="Shape" fill="#FBCE9D"></path>
                    <path d="M150.992241,75 C156.879439,72.4121158 161,66.5487914 161,59.7114294 C161,50.4819457 153.518054,43 144.288571,43 C137.446434,43 131.58311,47.120561 129,53.0077589 L150.992241,75 L150.992241,75 Z" id="Shape" fill="#FBCE9D"></path>
                    <path d="M174.992241,99 C180.879439,96.4121158 185,90.5487914 185,83.7114294 C185,74.4819457 177.518054,67 168.288571,67 C161.446434,67 155.58311,71.120561 153,77.0077589 L174.992241,99 L174.992241,99 Z" id="Shape" fill="#FBCE9D"></path>
                    <path d="M198.992241,123 C204.879439,120.412116 209,114.548791 209,107.711429 C209,98.4819457 201.518054,91 192.288571,91 C185.446434,91 179.58311,95.120561 177,101.007759 L198.992241,123 L198.992241,123 Z" id="Shape" fill="#FBCE9D"></path>
                    <path d="M102.117647,159 L53.8823529,159 C44.5970588,159 37,151.35 37,142 L37,142 C37,132.65 44.5970588,125 53.8823529,125 L102.117647,125 C111.402941,125 119,132.65 119,142 L119,142 C119,151.35 111.402941,159 102.117647,159 L102.117647,159 Z" id="Shape" fill="#FBCE9D"></path>
                    <path d="M201.05304,151 L147.707092,204.305694 C143.408714,208.600829 136.43824,208.600829 132.144659,204.305694 L85.6972248,157.888515 L54.0878316,157.888515 C51.3149936,159.245125 43.7496555,154.350781 46.6520205,156.838699 L98.5204009,208.466606 C98.875401,208.821338 99.2879685,209.075403 99.6621577,209.39658 L99.6621577,225 L195.608108,225 L195.608108,203.380514 C204.334392,196.81797 210,186.420483 210,174.666386 C209.995203,165.591954 206.603513,157.327654 201.05304,151 L201.05304,151 Z" id="Shape" fill="#F7B563"></path>
                    <path d="M89.6599479,14 L15,88.6579005 L51.4349376,125.091839 C52.0348279,125.029452 52.6155217,124.909477 53.2250103,124.909477 L101.216235,124.909477 C110.454545,124.909477 118.013163,132.467888 118.013163,141.705945 C118.013163,150.944003 110.454545,158.502413 101.216235,158.502413 L84.8464281,158.502413 L115.344851,189 L190,114.342099 L89.6599479,14 L89.6599479,14 Z" id="Shape" fill="#424A60"></path>
                    <g id="Group" fill="#E7ECED">
                        <path d="M91,13.9391196 L80.3032094,3.24232896 C75.9801041,-1.08077632 68.9695327,-1.08077632 64.6512523,3.24232896 L5.24232896,62.6464274 C0.91922368,66.9695327 0.91922368,73.9801041 5.24232896,78.3032094 L15.9391196,89 L91,13.9391196 L91,13.9391196 Z" id="Shape"></path>
                        <path d="M206.770472,129.996727 L190.773642,114 L116,188.777971 L131.992023,204.769892 C136.298862,209.076703 143.283054,209.076703 147.585086,204.769892 L206.765665,145.589691 C211.07731,141.287687 211.07731,134.303539 206.770472,129.996727 L206.770472,129.996727 Z" id="Shape"></path>
                    </g>
                    <circle id="Oval" fill="#FFFFFF" cx="163.5" cy="160.5" r="9.5"></circle>
                    <path d="M41.7505937,53 C40.5347457,53 39.3188976,52.5345291 38.3927634,51.608337 C36.5357455,49.751203 36.5357455,46.7493907 38.3927634,44.8922567 L47.8915761,35.3928504 C49.7485939,33.5357165 52.7502187,33.5357165 54.6072366,35.3928504 C56.4642545,37.2499844 56.4642545,40.2517968 54.6072366,42.1089307 L45.1084239,51.608337 C44.1822897,52.5345291 42.9664417,53 41.7505937,53 L41.7505937,53 Z" id="Shape" fill="#424A60"></path>
                </g>
            </g>
            <ellipse id="Oval-5" stroke="#F1F2F3" stroke-width="7" stroke-dasharray="20" opacity="0.200000003" cx="1221" cy="-18" rx="37" ry="63"></ellipse>
        </g>
    </g>
</svg>