<?xml version="1.0" encoding="UTF-8" standalone="no"?>
<svg width="54px" height="58px" viewBox="0 0 54 58" version="1.1" xmlns="http://www.w3.org/2000/svg" xmlns:xlink="http://www.w3.org/1999/xlink">
    <!-- Generator: Sketch 39.1 (31720) - http://www.bohemiancoding.com/sketch -->
    <title>calendar</title>
    <desc>Created with Sketch.</desc>
    <defs></defs>
    <g id="Page-1" stroke="none" stroke-width="1" fill="none" fill-rule="evenodd">
        <g id="calendar">
            <g id="Capa_1">
                <polygon id="Shape" fill="#4B69C8" points="46 4 46 8 39 8 39 4 15 4 15 8 8 8 8 4 0 4 0 15 54 15 54 4"></polygon>
                <polygon id="Shape" fill="#EDEADA" points="8 15 0 15 0 58 54 58 54 15 46 15 39 15 15 15"></polygon>
                <path d="M37,22 L35,22 L28,22 L26,22 L19,22 L17,22 L8,22 L8,31 L8,33 L8,40 L8,42 L8,51 L17,51 L19,51 L26,51 L28,51 L35,51 L37,51 L46,51 L46,42 L46,40 L46,33 L46,31 L46,22 L37,22 L37,22 Z M28,24 L35,24 L35,31 L28,31 L28,24 L28,24 Z M35,40 L28,40 L28,33 L35,33 L35,40 L35,40 Z M19,33 L26,33 L26,40 L19,40 L19,33 L19,33 Z M19,24 L26,24 L26,31 L19,31 L19,24 L19,24 Z M10,24 L17,24 L17,31 L10,31 L10,24 L10,24 Z M10,33 L17,33 L17,40 L10,40 L10,33 L10,33 Z M17,49 L10,49 L10,42 L17,42 L17,49 L17,49 Z M26,49 L19,49 L19,42 L26,42 L26,49 L26,49 Z M35,49 L28,49 L28,42 L35,42 L35,49 L35,49 Z M44,49 L37,49 L37,42 L44,42 L44,49 L44,49 Z M44,40 L37,40 L37,33 L44,33 L44,40 L44,40 Z M37,31 L37,24 L44,24 L44,31 L37,31 L37,31 Z" id="Shape" fill="#CEC9AE"></path>
                <rect id="Rectangle-path" fill="#28384C" x="8" y="0" width="7" height="8"></rect>
                <rect id="Rectangle-path" fill="#28384C" x="39" y="0" width="7" height="8"></rect>
                <rect id="Rectangle-path" fill="#00A4FF" x="28" y="33" width="7" height="7"></rect>
            </g>
        </g>
    </g>
</svg>