<?xml version="1.0" encoding="UTF-8" standalone="no"?>
<svg width="56px" height="56px" viewBox="0 0 56 56" version="1.1" xmlns="http://www.w3.org/2000/svg" xmlns:xlink="http://www.w3.org/1999/xlink">
    <!-- Generator: Sketch 39.1 (31720) - http://www.bohemiancoding.com/sketch -->
    <title>Group 2</title>
    <desc>Created with Sketch.</desc>
    <defs></defs>
    <g id="Page-1" stroke="none" stroke-width="1" fill="none" fill-rule="evenodd">
        <g id="Group-2">
            <ellipse id="Oval-2" fill="#4B69C8" cx="28" cy="28" rx="28" ry="28"></ellipse>
            <g id="duck" transform="translate(13.000000, 11.000000)">
                <g id="Layer_1">
                    <g id="Group">
                        <path d="M14.7261258,24 C14.022652,24 13.4523376,24.567098 13.4523376,25.2667756 L13.4523376,31.8874528 L11.0622643,31.8874528 C10.4756061,31.8874528 10,32.3603767 10,32.9437264 C10,33.5270762 10.4756061,34 11.0622643,34 L14.9377357,34 C15.5243939,34 16,33.5270762 16,32.9437264 L16,25.2667756 C16,24.5671836 15.4296856,24 14.7261258,24 L14.7261258,24 Z" id="Shape" fill="#B36F0F"></path>
                        <path d="M19.7261258,24 C19.022652,24 18.4523376,24.567098 18.4523376,25.2667756 L18.4523376,31.8874528 L16.0622643,31.8874528 C15.4756061,31.8874528 15,32.3603767 15,32.9437264 C15,33.5270762 15.4756061,34 16.0622643,34 L19.9377357,34 C20.5243939,34 21,33.5270762 21,32.9437264 L21,25.2667756 C21,24.5671836 20.4296856,24 19.7261258,24 L19.7261258,24 Z" id="Shape" fill="#D98712"></path>
                        <path d="M28.7021648,11.8255563 C27.9853699,11.8255563 27.4042388,12.4007085 27.4042388,13.1101287 L27.4042388,13.5158068 C26.0213755,12.2872767 24.1938616,11.5392376 22.1893949,11.5392376 L16.7703748,11.5392376 L16.7703748,8.00515917 C16.7703748,4.63534577 14.2981175,1.83852909 11.0512609,1.29005089 L11.1660533,1.17643948 C11.3999032,0.944905698 11.3999032,0.569763497 11.1660533,0.338229718 C10.9322034,0.106875561 10.55298,0.106875561 10.3191301,0.338229718 L9.87865375,0.774084423 L9.87865375,0.592665403 C9.87865375,0.265392675 9.61059297,-2.24381917e-15 9.27982738,-2.24381917e-15 C8.94915254,-2.24381917e-15 8.68100102,0.265392675 8.68100102,0.592665403 L8.68100102,1.29687656 C5.45292854,1.86089213 3,4.64863786 3,8.00524898 L3,17.0412633 C3,22.5412234 7.50512709,27 13.0622612,27 L22.1893042,27 C26.50305,27 30,23.5389382 30,19.2696637 L30,13.1102185 C30.0000907,12.4007085 29.4189597,11.8255563 28.7021648,11.8255563 L28.7021648,11.8255563 Z" id="Shape" fill="#FFB648"></path>
                        <path d="M23.7131633,15 C23.8706783,15 23.9983364,15.1360725 23.9983364,15.3038766 L24,15.3039699 C23.8500149,19.5812947 20.5494668,23 16.4999562,23 C12.4504457,23 9.14989756,19.5812947 9,15.3039699 L9.00166358,15.3038766 C9.00166358,15.1360725 9.12932167,15 9.28674913,15 L23.7131633,15 L23.7131633,15 L23.7131633,15 Z" id="Shape" fill="#FF9E16"></path>
                        <path d="M7.06369559,8 L1.93621943,8 C0.866858654,8 2.65065747e-15,8.89541365 2.65065747e-15,10.0000878 C2.65065747e-15,11.1045864 0.866858654,12 1.93621943,12 L7.06369559,12 C8.13297139,12 9,11.1045864 9,10.0000878 C8.99991502,8.89541365 8.13297139,8 7.06369559,8 L7.06369559,8 Z" id="Shape" fill="#D98712"></path>
                        <circle id="Oval" fill="#333E48" cx="9.5" cy="6.5" r="0.5"></circle>
                    </g>
                </g>
            </g>
        </g>
    </g>
</svg>