<?xml version="1.0" encoding="UTF-8" standalone="no"?>
<svg width="100px" height="100px" viewBox="0 0 100 100" version="1.1" xmlns="http://www.w3.org/2000/svg" xmlns:xlink="http://www.w3.org/1999/xlink">
    <!-- Generator: Sketch 39.1 (31720) - http://www.bohemiancoding.com/sketch -->
    <title>Group 2 Copy</title>
    <desc>Created with Sketch.</desc>
    <defs></defs>
    <g id="Page-1" stroke="none" stroke-width="1" fill="none" fill-rule="evenodd">
        <g id="Group-2-Copy">
            <ellipse id="Oval-2" fill="#F1F2F3" cx="50" cy="50" rx="50" ry="50"></ellipse>
            <g id="duck" transform="translate(23.214286, 19.642857)">
                <g id="Layer_1">
                    <g id="Group">
                        <path d="M26.2966532,42.8571429 C25.04045,42.8571429 24.0220314,43.8698179 24.0220314,45.1192421 L24.0220314,56.9418801 L19.7540435,56.9418801 C18.7064394,56.9418801 17.8571429,57.786387 17.8571429,58.8280829 C17.8571429,59.8697788 18.7064394,60.7142857 19.7540435,60.7142857 L26.674528,60.7142857 C27.722132,60.7142857 28.5714286,59.8697788 28.5714286,58.8280829 L28.5714286,45.1192421 C28.5714286,43.8699707 27.55301,42.8571429 26.2966532,42.8571429 L26.2966532,42.8571429 Z" id="Shape" fill="#B36F0F"></path>
                        <path d="M35.2252246,42.8571429 C33.9690214,42.8571429 32.9506029,43.8698179 32.9506029,45.1192421 L32.9506029,56.9418801 L28.6826149,56.9418801 C27.6350109,56.9418801 26.7857143,57.786387 26.7857143,58.8280829 C26.7857143,59.8697788 27.6350109,60.7142857 28.6826149,60.7142857 L35.6030994,60.7142857 C36.6507034,60.7142857 37.5,59.8697788 37.5,58.8280829 L37.5,45.1192421 C37.5,43.8699707 36.4815814,42.8571429 35.2252246,42.8571429 L35.2252246,42.8571429 Z" id="Shape" fill="#D98712"></path>
                        <path d="M51.2538657,21.1170649 C49.9738748,21.1170649 48.9361407,22.1441223 48.9361407,23.4109442 L48.9361407,24.1353693 C46.466742,21.9415656 43.2033243,20.6057814 39.6239195,20.6057814 L29.9470978,20.6057814 L29.9470978,14.2949271 C29.9470978,8.27740317 25.5323528,3.28308766 19.7343944,2.30366231 L19.9393809,2.10078478 C20.35697,1.6873316 20.35697,1.01743482 19.9393809,0.603981639 C19.5217918,0.190849217 18.8446071,0.190849217 18.427018,0.603981639 L17.6404531,1.38229361 L17.6404531,1.05833108 C17.6404531,0.473915492 17.1617732,-4.00681994e-15 16.5711203,-4.00681994e-15 C15.9806295,-4.00681994e-15 15.5017875,0.473915492 15.5017875,1.05833108 L15.5017875,2.315851 C9.7373724,3.32302165 5.35714286,8.30113904 5.35714286,14.2950875 L5.35714286,30.4308274 C5.35714286,40.2521847 13.4020127,48.2142857 23.3254664,48.2142857 L39.6237575,48.2142857 C47.3268751,48.2142857 53.5714286,42.0338183 53.5714286,34.4101138 L53.5714286,23.4111045 C53.5715906,22.1441223 52.5338565,21.1170649 51.2538657,21.1170649 L51.2538657,21.1170649 Z" id="Shape" fill="#FFB648"></path>
                        <path d="M42.3449345,26.7857143 C42.6262113,26.7857143 42.8541722,27.0287009 42.8541722,27.3283511 L42.8571429,27.3285178 C42.5893123,34.9665977 36.6954764,41.0714286 29.4642075,41.0714286 C22.2329387,41.0714286 16.3391028,34.9665977 16.0714286,27.3285178 L16.0743993,27.3283511 C16.0743993,27.0287009 16.3023601,26.7857143 16.5834806,26.7857143 L42.3449345,26.7857143 L42.3449345,26.7857143 L42.3449345,26.7857143 Z" id="Shape" fill="#FF9E16"></path>
                        <path d="M12.6137421,14.2857143 L3.4575347,14.2857143 C1.54796188,14.2857143 4.73331691e-15,15.8846672 4.73331691e-15,17.8572996 C4.73331691e-15,19.8296185 1.54796188,21.4285714 3.4575347,21.4285714 L12.6137421,21.4285714 C14.5231632,21.4285714 16.0714286,19.8296185 16.0714286,17.8572996 C16.0712768,15.8846672 14.5231632,14.2857143 12.6137421,14.2857143 L12.6137421,14.2857143 Z" id="Shape" fill="#D98712"></path>
                        <circle id="Oval" fill="#333E48" cx="16.9642857" cy="11.6071429" r="0.892857143"></circle>
                    </g>
                </g>
            </g>
        </g>
    </g>
</svg>