<?xml version="1.0" encoding="UTF-8" standalone="no"?>
<svg width="24px" height="19px" viewBox="0 0 24 19" version="1.1" xmlns="http://www.w3.org/2000/svg" xmlns:xlink="http://www.w3.org/1999/xlink">
    <!-- Generator: Sketch 39.1 (31720) - http://www.bohemiancoding.com/sketch -->
    <title>gmail-logo (1)</title>
    <desc>Created with Sketch.</desc>
    <defs></defs>
    <g id="Page-1" stroke="none" stroke-width="1" fill="none" fill-rule="evenodd">
        <g id="Artboard" transform="translate(-325.000000, -499.000000)" fill="#EBE9DD">
            <g id="gmail-logo-(1)" transform="translate(325.000000, 499.000000)">
                <g id="Capa_1">
                    <g id="gmail">
                        <path d="M21.6,0 L2.4,0 C1.08,0 0,1.06875 0,2.375 L0,16.625 C0,17.93125 1.08,19 2.4,19 L21.6,19 C22.92,19 24,17.93125 24,16.625 L24,2.375 C24,1.06875 22.92,0 21.6,0 L21.6,0 Z M19.2,16.625 L19.2,6.175 L12,10.6875 L4.8,6.175 L4.8,16.625 L2.4,16.625 L2.4,2.375 L3.84,2.375 L12,7.3625 L20.16,2.375 L21.6,2.375 L21.6,16.625 L19.2,16.625 Z" id="Shape"></path>
                    </g>
                </g>
            </g>
        </g>
    </g>
</svg>