<?xml version="1.0" encoding="UTF-8" standalone="no"?>
<svg width="20px" height="24px" viewBox="0 0 20 24" version="1.1" xmlns="http://www.w3.org/2000/svg" xmlns:xlink="http://www.w3.org/1999/xlink">
    <!-- Generator: Sketch 39.1 (31720) - http://www.bohemiancoding.com/sketch -->
    <title>ic_contacts_black_24px (1)</title>
    <desc>Created with Sketch.</desc>
    <defs></defs>
    <g id="Page-1" stroke="none" stroke-width="1" fill="none" fill-rule="evenodd">
        <g id="ic_contacts_black_24px-(1)" transform="translate(-2.000000, 0.000000)">
            <g id="Group">
                <path d="M0,0 L24,0 L24,24 L0,24 L0,0 Z M0,0 L24,0 L24,24 L0,24 L0,0 Z M0,0 L24,0 L24,24 L0,24 L0,0 Z" id="Shape"></path>
                <path d="M20,0 L4,0 L4,2 L20,2 L20,0 L20,0 Z M4,24 L20,24 L20,22 L4,22 L4,24 L4,24 Z M20,4 L4,4 C2.9,4 2,4.9 2,6 L2,18 C2,19.1 2.9,20 4,20 L20,20 C21.1,20 22,19.1 22,18 L22,6 C22,4.9 21.1,4 20,4 L20,4 Z M12,6.75 C13.24,6.75 14.25,7.76 14.25,9 C14.25,10.24 13.24,11.25 12,11.25 C10.76,11.25 9.75,10.24 9.75,9 C9.75,7.76 10.76,6.75 12,6.75 L12,6.75 Z M17,17 L7,17 L7,15.5 C7,13.83 10.33,13 12,13 C13.67,13 17,13.83 17,15.5 L17,17 L17,17 Z" id="Shape" fill="#4B69C8"></path>
            </g>
        </g>
    </g>
</svg>