<?xml version="1.0" encoding="UTF-8" standalone="no"?>
<svg width="16px" height="20px" viewBox="0 0 16 20" version="1.1" xmlns="http://www.w3.org/2000/svg" xmlns:xlink="http://www.w3.org/1999/xlink">
    <!-- Generator: Sketch 39.1 (31720) - http://www.bohemiancoding.com/sketch -->
    <title>ic_notifications_active_black_24px</title>
    <desc>Created with Sketch.</desc>
    <defs></defs>
    <g id="Page-1" stroke="none" stroke-width="1" fill="none" fill-rule="evenodd">
        <g id="ic_notifications_active_black_24px" transform="translate(-4.000000, -2.000000)">
            <g id="Group">
                <polygon id="Shape" points="0 0 24 0 24 24 0 24"></polygon>
                <path d="M13.5,4.68 L13.5,4 C13.5,3.17 12.83,2.5 12,2.5 C11.17,2.5 10.5,3.17 10.5,4 L10.5,4.68 C7.63,5.36 6,7.92 6,11 L6,16 L4,18 L4,19 L20,19 L20,18 L18,16 L18,11 C18,7.93 16.36,5.36 13.5,4.68 Z M12,22 C12.14,22 12.27,21.99 12.4,21.96 C13.05,21.82 13.58,21.38 13.84,20.78 C13.94,20.54 13.99,20.28 13.99,20 L9.99,20 C10,21.1 10.89,22 12,22 L12,22 Z" id="Shape" fill="#4B69C8"></path>
            </g>
            <circle id="Oval-6" fill="#E65959" cx="17" cy="8" r="3"></circle>
        </g>
    </g>
</svg>