<?xml version="1.0" encoding="UTF-8" standalone="no"?>
<svg width="58px" height="48px" viewBox="0 0 58 48" version="1.1" xmlns="http://www.w3.org/2000/svg" xmlns:xlink="http://www.w3.org/1999/xlink">
    <!-- Generator: Sketch 39.1 (31720) - http://www.bohemiancoding.com/sketch -->
    <title>mail</title>
    <desc>Created with Sketch.</desc>
    <defs></defs>
    <g id="Page-1" stroke="none" stroke-width="1" fill="none" fill-rule="evenodd">
        <g id="mail">
            <g id="Capa_1">
                <g id="Group">
                    <g id="Shape">
                        <polygon fill="#DCD6CD" points="0 0 0 39 28 39 56 39 56 0"></polygon>
                        <path d="M30.965,22.107 C29.328,23.569 26.673,23.569 25.035,22.107 L22.948,20.264 C16.419,26.091 0,39 0,39 L21.607,39 L34.394,39 L56,39 C56,39 39.581,26.091 33.052,20.264 L30.965,22.107 L30.965,22.107 Z" fill="#E8E3D9"></path>
                        <path d="M0,0 L25.035,22.107 C26.672,23.569 29.327,23.569 30.965,22.107 L56,0 L0,0 L0,0 Z" fill="#EFEBDE"></path>
                    </g>
                    <g transform="translate(34.000000, 24.000000)">
                        <circle id="Oval" fill="#00A4FF" cx="12" cy="12" r="12"></circle>
                        <path d="M18.571,6.179 C18.116,5.863 17.494,5.975 17.179,6.429 L11.583,14.469 L7.634,11.227 C7.208,10.876 6.577,10.939 6.227,11.366 C5.876,11.793 5.938,12.423 6.366,12.773 L11.152,16.702 C11.332,16.849 11.556,16.929 11.786,16.929 C11.831,16.929 11.877,16.926 11.923,16.92 C12.199,16.881 12.447,16.73 12.607,16.501 L18.821,7.572 C19.136,7.118 19.024,6.495 18.571,6.179 L18.571,6.179 Z" id="Shape" fill="#FFFFFF"></path>
                    </g>
                </g>
            </g>
        </g>
    </g>
</svg>