<?xml version="1.0" encoding="UTF-8" standalone="no"?>
<svg width="17px" height="20px" viewBox="0 0 17 20" version="1.1" xmlns="http://www.w3.org/2000/svg" xmlns:xlink="http://www.w3.org/1999/xlink">
    <!-- Generator: Sketch 39.1 (31720) - http://www.bohemiancoding.com/sketch -->
    <title>Group 12</title>
    <desc>Created with Sketch.</desc>
    <defs></defs>
    <g id="User-Page" stroke="none" stroke-width="1" fill="none" fill-rule="evenodd">
        <g id="user-page" transform="translate(-784.000000, -18.000000)">
            <g id="nav-bar">
                <g id="Group-12" transform="translate(784.000000, 18.000000)">
                    <g id="ic_notifications_black_24px-copy" fill="#FEFEFE">
                        <path d="M8,20 C9.1,20 10,19.1 10,18 L6,18 C6,19.1 6.89,20 8,20 L8,20 Z M14,14 L14,9 C14,5.93 12.36,3.36 9.5,2.68 L9.5,2 C9.5,1.17 8.83,0.5 8,0.5 C7.17,0.5 6.5,1.17 6.5,2 L6.5,2.68 C3.63,3.36 2,5.92 2,9 L2,14 L0,16 L0,17 L16,17 L16,16 L14,14 L14,14 Z" id="Shape"></path>
                    </g>
                    <rect id="Rectangle-2-Copy" fill="#EA5C6D" x="9" y="1" width="8" height="8" rx="4"></rect>
                </g>
            </g>
        </g>
    </g>
</svg>