<?xml version="1.0" encoding="UTF-8" standalone="no"?>
<svg width="24px" height="20px" viewBox="0 0 24 20" version="1.1" xmlns="http://www.w3.org/2000/svg" xmlns:xlink="http://www.w3.org/1999/xlink">
    <!-- Generator: Sketch 39.1 (31720) - http://www.bohemiancoding.com/sketch -->
    <title>twitter-logo-on-black-background</title>
    <desc>Created with Sketch.</desc>
    <defs></defs>
    <g id="Page-1" stroke="none" stroke-width="1" fill="none" fill-rule="evenodd">
        <g id="Artboard" transform="translate(-904.000000, -419.000000)" fill="#F8FAFB">
            <g id="twitter-logo-on-black-background" transform="translate(904.000000, 419.000000)">
                <g id="Capa_1">
                    <g id="post-twitter">
                        <path d="M21.8972477,4.99267399 C21.7100917,13.5860806 16.2825688,19.5641026 8.04770642,19.9377289 C4.67889908,20.1245421 2.24587156,19.003663 0,17.6959707 C2.43302752,18.0696703 5.6146789,17.1356044 7.29908257,15.6410256 C4.86605505,15.4542125 3.36880734,14.1465201 2.62018349,12.0915751 C3.36880734,12.2783883 4.11743119,12.0915751 4.67889908,12.0915751 C2.43302752,11.3443223 0.935779817,10.03663 0.748623853,7.04761905 C1.31009174,7.42124542 2.0587156,7.60805861 2.80733945,7.60805861 C1.12293578,6.67399267 0,3.12454212 1.31009174,0.882783883 C3.74311927,3.4981685 6.73761468,5.73992674 11.6036697,6.11355311 C10.293578,0.882783883 17.405578,-1.91941392 20.2129174,1.63003663 C21.5230092,1.44322344 22.458789,0.882783883 23.3945688,0.509157509 C23.0202569,1.81684982 22.271633,2.56410256 21.3358532,3.31135531 C22.271633,3.12454212 23.2074128,2.93772894 23.9560367,2.56410256 C23.7688073,3.4981685 22.8330275,4.24542125 21.8972477,4.99267399 L21.8972477,4.99267399 Z" id="Shape"></path>
                    </g>
                </g>
            </g>
        </g>
    </g>
</svg>