<?xml version="1.0" encoding="UTF-8" standalone="no"?>
<svg width="59px" height="57px" viewBox="0 0 59 57" version="1.1" xmlns="http://www.w3.org/2000/svg" xmlns:xlink="http://www.w3.org/1999/xlink">
    <!-- Generator: Sketch 39.1 (31720) - http://www.bohemiancoding.com/sketch -->
    <title>user</title>
    <desc>Created with Sketch.</desc>
    <defs></defs>
    <g id="Page-1" stroke="none" stroke-width="1" fill="none" fill-rule="evenodd">
        <g id="user">
            <g id="Capa_1">
                <g id="Group">
                    <path d="M53.566,43.283 L44.014,38.507 C42.78,37.89 42,36.628 42,35.248 L42,31.5 C42.268,31.195 42.576,30.802 42.904,30.338 C44.206,28.5 45.19,26.477 45.873,24.354 C47.098,23.977 48,22.845 48,21.5 L48,17.5 C48,16.62 47.609,15.833 47,15.283 L47,9.5 C47,9.5 48.187,0.5 36,0.5 C23.812,0.5 25,9.5 25,9.5 L25,15.283 C24.391,15.833 24,16.62 24,17.5 L24,21.5 C24,22.554 24.554,23.481 25.383,24.017 C26.382,28.369 29,31.5 29,31.5 L29,35.155 C29,36.488 28.272,37.715 27.101,38.353 L18.18,43.22 C15.603,44.625 14,47.326 14,50.261 L14,53.5 L58,53.5 L58,50.457 C58,47.419 56.283,44.642 53.566,43.283 L53.566,43.283 Z" id="Shape" fill="#8697CB"></path>
                    <path d="M18.18,43.22 L24.126,39.977 C24.092,39.944 24.121,39.934 24.191,39.941 L27.101,38.354 C28.272,37.715 29,36.489 29,35.155 L29,31.5 C29,31.5 27.938,30.225 26.908,28.177 L26.908,28.177 C26.908,28.176 26.907,28.175 26.907,28.174 C26.772,27.906 26.639,27.623 26.508,27.33 C26.49,27.289 26.472,27.25 26.454,27.209 C26.321,26.906 26.191,26.593 26.068,26.265 C26.06,26.244 26.053,26.221 26.045,26.2 C25.937,25.91 25.836,25.611 25.739,25.304 C25.713,25.22 25.687,25.137 25.662,25.053 C25.561,24.715 25.466,24.371 25.384,24.015 C24.554,23.481 24,22.554 24,21.5 L24,17.5 C24,16.62 24.391,15.833 25,15.283 L25,9.635 C23.587,8.539 21.397,7.5 18,7.5 C8.437,7.5 8,15.5 8,15.5 L8,20.495 C7.474,20.97 7,21.649 7,22.409 L7,25.864 C7,26.775 7.479,27.575 8.194,28.038 C9.057,31.796 11.954,34.501 11.954,34.501 L11.954,37.658 C11.954,38.809 11.325,39.869 10.314,40.42 L3.61,44.622 C1.385,45.836 0,48.168 0,50.703 L0,53.5 L14,53.5 L14,50.261 C14,47.326 15.603,44.625 18.18,43.22 L18.18,43.22 Z" id="Shape" fill="#556080"></path>
                    <g transform="translate(35.000000, 32.000000)">
                        <circle id="Oval" fill="#00A4FF" cx="12" cy="12.5" r="12"></circle>
                        <path d="M18,11.5 L13,11.5 L13,6.5 C13,5.948 12.552,5.5 12,5.5 C11.448,5.5 11,5.948 11,6.5 L11,11.5 L6,11.5 C5.448,11.5 5,11.948 5,12.5 C5,13.052 5.448,13.5 6,13.5 L11,13.5 L11,18.5 C11,19.052 11.448,19.5 12,19.5 C12.552,19.5 13,19.052 13,18.5 L13,13.5 L18,13.5 C18.552,13.5 19,13.052 19,12.5 C19,11.948 18.552,11.5 18,11.5 L18,11.5 Z" id="Shape" fill="#FFFFFF"></path>
                    </g>
                </g>
            </g>
        </g>
    </g>
</svg>